<svg id="Layer_1" data-name="Layer 1" xmlns="http://www.w3.org/2000/svg" viewBox="0 0 534.17 300"><defs><style>.cls-1{fill:#4d4e4b;}.cls-1,.cls-2,.cls-3,.cls-4{fill-rule:evenodd;}.cls-2{fill:#e15a11;}.cls-3{fill:#069139;}.cls-4{fill:#05559c;}</style></defs><title>Digital-India</title><path class="cls-1" d="M246.72,231.93V207h7.9a8.21,8.21,0,0,1,5.7,1.93,6.67,6.67,0,0,1,2.12,5.18,7,7,0,0,1-1.09,3.86,6.39,6.39,0,0,1-3,2.44,15.11,15.11,0,0,1-5.42.75h-2.67v10.8ZM254,210.16h-3.71V218h3.92a4.93,4.93,0,0,0,3.35-1,3.67,3.67,0,0,0,1.19-3c0-2.55-1.59-3.83-4.75-3.83Zm18,5.3a8.55,8.55,0,0,1,6.25,2.42,8.2,8.2,0,0,1,2.48,6.09,7.74,7.74,0,0,1-2.53,5.94,8.87,8.87,0,0,1-6.33,2.36,8.62,8.62,0,0,1-6.19-2.39,8.45,8.45,0,0,1,0-11.94l0,0A8.75,8.75,0,0,1,272,215.5Zm-.16,3a5.14,5.14,0,0,0-3.84,1.48,5.41,5.41,0,0,0-1.49,3.92,5.06,5.06,0,0,0,1.49,3.84,5.38,5.38,0,0,0,3.94,1.48,5.28,5.28,0,0,0,3.92-1.48,5.36,5.36,0,0,0-4-9.23Zm32.64-2.88H308l-7.23,16.72H299.7l-4.84-11.46-4.81,11.46H289l-7.27-16.72h3.49l4.29,10,4.18-10h2.43l4.14,10,4.29-10ZM323.6,224H312a5.5,5.5,0,0,0,1.57,3.78,5.18,5.18,0,0,0,3.77,1.49,9.87,9.87,0,0,0,5.94-2v3.18a11.4,11.4,0,0,1-3,1.41,12.25,12.25,0,0,1-3.46.43,7.76,7.76,0,0,1-4.45-1.13,8.12,8.12,0,0,1-2.67-3,9.15,9.15,0,0,1-1-4.45,8.76,8.76,0,0,1,2.13-6.11,7.07,7.07,0,0,1,5.52-2.36,6.52,6.52,0,0,1,5.23,2.29,9.12,9.12,0,0,1,1.94,6.12v.4Zm-11.48-1.93h8.35a4.68,4.68,0,0,0-1.16-3,3.74,3.74,0,0,0-2.79-1.05,4,4,0,0,0-2.86,1.05,5.3,5.3,0,0,0-1.48,3Zm18.47-6.51v3.72l.18-.3q2.36-3.79,4.71-3.79a5.87,5.87,0,0,1,3.85,1.85l-1.71,2.86a4.87,4.87,0,0,0-3.16-1.6,3.33,3.33,0,0,0-2.72,1.49,5.68,5.68,0,0,0-1.15,3.56V232h-3.25V215.5ZM345.51,207h20.85v3.19h-8.71V232h-3.58V210.16h-8.56V207Zm26.14,8.48a8.59,8.59,0,0,1,6.25,2.42,8.22,8.22,0,0,1,2.48,6.1,7.74,7.74,0,0,1-2.52,5.93,8.9,8.9,0,0,1-6.34,2.36,8.64,8.64,0,0,1-6.19-2.39,8.43,8.43,0,0,1,0-11.93l0,0a8.76,8.76,0,0,1,6.3-2.4Zm-.16,3a5.18,5.18,0,0,0-3.84,1.48,5.39,5.39,0,0,0-1.48,3.92,5.09,5.09,0,0,0,1.48,3.84,5.48,5.48,0,0,0,4,1.49,5.35,5.35,0,0,0,3.92-1.49,5.36,5.36,0,0,0-4-9.22ZM394.65,207h14.17v3.19H398.24v7.61h10.21V221H398.24v7.79h10.91v3.19h-14.5ZM426,220v11.87h-3.25V222.7a7.06,7.06,0,0,0-.74-3.81,2.84,2.84,0,0,0-2.55-1.1,3.61,3.61,0,0,0-1.87.49,7.77,7.77,0,0,0-1.94,1.67v11.87h-3.25V215.5h3.25v2.15a7,7,0,0,1,4.86-2.52,5.34,5.34,0,0,1,4.84,3,7.29,7.29,0,0,1,5.44-3,5.05,5.05,0,0,1,3.95,1.75,7.91,7.91,0,0,1,1.48,5.34v9.71h-3.25v-9.78a5,5,0,0,0-.84-3.15,2.89,2.89,0,0,0-2.42-1.09,4.94,4.94,0,0,0-3.77,2.09Zm14.53,20.34V215.5h5.69a9.9,9.9,0,0,1,6.8,2.17,7.79,7.79,0,0,1,2.43,6.1,8.35,8.35,0,0,1-2.28,6.07,7.76,7.76,0,0,1-5.83,2.38,10.37,10.37,0,0,1-3.49-.69v8.81Zm5.62-21.81h-2.3v10.1a6.82,6.82,0,0,0,3.13.76,4.8,4.8,0,0,0,3.72-1.59,6.32,6.32,0,0,0,.81-6.93,4.37,4.37,0,0,0-1.87-1.79,8.51,8.51,0,0,0-3.46-.57Zm20.77-3.07a8.51,8.51,0,0,1,6.23,2.42,8.12,8.12,0,0,1,2.49,6.09,7.69,7.69,0,0,1-2.52,5.94,8.87,8.87,0,0,1-6.33,2.36,8.62,8.62,0,0,1-6.19-2.39,8.44,8.44,0,0,1,0-11.94l0,0a8.71,8.71,0,0,1,6.29-2.41Zm-.16,3a5.09,5.09,0,0,0-3.84,1.48,5.33,5.33,0,0,0-1.49,3.92,5.07,5.07,0,0,0,1.49,3.84,5.42,5.42,0,0,0,3.94,1.48,5.35,5.35,0,0,0,3.93-1.48,5.26,5.26,0,0,0,1.49-3.87,5.14,5.14,0,0,0-1.61-3.88,5.48,5.48,0,0,0-4-1.48Zm32.64-2.88h3.48l-7.31,16.67h-1.07l-4.86-11.45-4.8,11.45h-1.08l-7.27-16.72H480l4.28,10,4.19-10h2.42l4.15,10,4.29-10ZM518.45,224H506.88a5.47,5.47,0,0,0,1.58,3.78,5.14,5.14,0,0,0,3.76,1.49,9.84,9.84,0,0,0,5.93-2v3.18a11.1,11.1,0,0,1-3,1.41,12.18,12.18,0,0,1-3.45.43,7.72,7.72,0,0,1-4.45-1.13,8.17,8.17,0,0,1-2.69-3,9.26,9.26,0,0,1-1-4.45,8.85,8.85,0,0,1,2.12-6.11,7.11,7.11,0,0,1,5.54-2.36,6.5,6.5,0,0,1,5.22,2.29,9.07,9.07,0,0,1,1.94,6.12v.4ZM507,222.06h8.28a4.73,4.73,0,0,0-1.16-3,3.79,3.79,0,0,0-2.79-1.05,4.08,4.08,0,0,0-2.88,1.05,5.43,5.43,0,0,0-1.48,3Zm18.47-6.51v3.72l.19-.3q2.37-3.79,4.72-3.79a5.91,5.91,0,0,1,3.84,1.85l-1.72,2.86a4.82,4.82,0,0,0-3.14-1.6,3.34,3.34,0,0,0-2.73,1.49,5.75,5.75,0,0,0-1.16,3.56V232h-3.25V215.5Z"/><path class="cls-2" d="M160.47,223.19l-6.87,11.87c-12.77,21.08-33.75,44.18-56.38,54.89-2.36,1.12-4.09,1.95-6.45,2.9a68.51,68.51,0,0,0-6.75,2.8c46.39-9.48,80.75-30.21,109.43-64.87,23.74-28.75,48.27-75.42,44.82-128.21-3.32-50.49-32-88.67-74.56-99.36-45.54-11.46-79.91,9-104.65,41.84C57.28,47.4,51.78,55.43,51,57.94c33.5-16.77,73.56-24.2,107.33.33,29.39,21.36,38.25,64.33,30.59,101.82-4.45,21.76-13.17,38.35-24.14,56.51a77.26,77.26,0,0,0-4.27,6.59Z"/><path class="cls-3" d="M43,293.74c-3.14,2.24-15.36-1.61-18.52-2.16,6,4.31,18.65,7.76,27.74,8.27,13.89.79,20-1.63,31.8-4.1A68.51,68.51,0,0,1,90.8,293c2.36-.95,4.09-1.78,6.45-2.89,22.66-10.74,43.64-33.85,56.38-54.9l6.87-11.87c.77-2.37,2.55-5.61,3.65-8.16,9.11-21,15.8-44.77,13.75-68.14-1.23-14-4.68-26.47-10.74-36.68-19.8-33.5-61.52-45.9-97.43-30-19.61,8.63-32,22.73-42.25,40.35C26,123.07,25,125.9,23.68,128c1.57-.27,6.2-3.17,8.34-4.18a106.76,106.76,0,0,1,29.43-9.59c28.1-4.61,57.7,4.45,72.09,28.65,6.75,11.38,8.67,27.69,7,43.22-3,27.67-16.84,56.53-30.4,72.88a126.58,126.58,0,0,1-12.54,13.35,109.68,109.68,0,0,1-14.51,10.95c-9.67,5.94-29.16,13.35-40,10.39Z"/><path class="cls-4" d="M24.45,291.58c3.16.55,15.39,4.46,18.52,2.16a14.78,14.78,0,0,1-10.23-9.25c-5.68-13.23-.87-37.43,2.35-50.52,2.58-10.47,5.4-20.2,8.66-30.29l9.9-28.89-39,.09c-2.39,3.72-7.61,24.17-9,30.06C-1,232-8.07,278.78,24.45,291.58Z"/><path class="cls-4" d="M13.43,149.05l2.89,3.15a29.81,29.81,0,0,1,7.19-5.39A23.75,23.75,0,0,1,48.59,149c1.59,1.15,2.09,2.1,3.62,3l3-3c-1.49-2.24-5.33-5-8.45-6.53a28.19,28.19,0,0,0-24.67,0c-2.76,1.26-7.22,4.45-8.54,6.57Z"/><path class="cls-4" d="M18.52,154.52l3,3.33c3-1.6,9.23-8.8,19.82-3.9a13.81,13.81,0,0,1,5.29,3.87L50.06,154c-4.22-3-7.78-6.65-15.92-6.59a20.64,20.64,0,0,0-15.6,7.16Z"/><path class="cls-4" d="M24.12,160.18l3.19,2.53c.34-.23.54-.41.82-.6A10.53,10.53,0,0,1,34.06,160c4.45-.1,5.36,1.82,8.18,3.23l2.15-3c-4.57-5.67-15.88-6.16-20.3,0Z"/><path class="cls-4" d="M29.08,165.31,34.76,171l4.69-5.43c-3.68-3.47-6.41-3.17-10.39-.25Z"/><path class="cls-1" d="M263.75,156c20.55-2,13.84,20.24,4.79,25.23-4.21,2.29-8.56,1.64-13.84,1.67l9.05-26.85ZM244.8,189.58c6.44.2,20.28.88,25.31-1.26C284.77,182.14,289,160.9,281.66,153c-4.81-5.19-16.47-3.77-23.53-3.86l-13.36,40.49Z"/><path class="cls-1" d="M304.3,192.61c5.15-1.56,11.36,3.92,4.14,5.34C301.7,199.27,296.42,195,304.3,192.61Zm8.19-24.2c6.08-2,3.79,7.58.5,9s-4.91-.31-4.26-3.74C309.27,170.86,310.22,169.15,312.49,168.41Zm-7.85,12.36c-2.57.67-4.3,1.48-5.18,3.56a4.79,4.79,0,0,0,1.72,6.32c-6.76,2.54-8.9,7.21-5.81,10.31,4.89,4.94,26.7,2.78,23-10-1.71-6-10.7-3.59-12.26-6.63,1.49-3.44,4.9.74,12.08-4,3.25-2.14,4.75-6.1,4.75-11.67h3.85l1.64-5.78c-9.14-1.17-22.44-1.32-25.72,8.53a10.61,10.61,0,0,0-.4,5.47,4.5,4.5,0,0,0,.83,2l1.49,2Z"/><path class="cls-1" d="M477.14,183.34c-11.09,2.42-9.11-14.6,4.78-14C481.27,172,478.34,181.66,477.14,183.34Zm7.21-21c-10.16.66-18.29,2.11-21.29,13.95-3.53,14,8.76,14.84,19.54,13l13.24-40.16H488.7l-4.35,13.23Z"/><path class="cls-1" d="M379.24,169c-.88,3.49-2.26,7-3.37,10.55-.83,2.63-.91,2.77-3.19,3.77-8.25,3.62-6.34-5.83-3.09-10.05,2.18-2.83,4.34-4.69,9.65-4.27Zm-6.47,18.59a1.43,1.43,0,0,1,.15.7c0,.28-.09.83-.11,1.41h6.72l8.91-26.62c-6.27-.92-11-1.48-16.77.73-16.81,6.39-16.47,35.18,1.05,23.81Z"/><path class="cls-1" d="M524.9,169c-.71,3.32-2.31,7.22-3.35,10.57-1.6,5.2-7,5.09-8.19,3.8C510.93,180.65,513.94,168.25,524.9,169Zm-6.47,18.6.08,2.11h6.66l8.9-26.47c-11.71-3.32-22.06,1.48-26.24,8.71-5.94,10.29-2.07,24.24,10.56,15.68Z"/><path class="cls-1" d="M430.81,189.6h7.06L442.46,176c.19-.58.34-1.06.47-1.49.67-2.25.46-2.35,2.8-4.06,6.31-4.57,7.24-1.75,5.83,3l-4.95,16.32h6.66l5.86-17.24a12.18,12.18,0,0,0,.4-1.58c.82-3.79.42-7.76-3.23-8.48-4.17-.82-7.55,1.48-10.25,3l.69-2.59-7-.14-8.9,26.95Z"/><path class="cls-1" d="M348.12,162.63h-4.86l-2.17,5.93h4.72c-.8,4.32-13.71,27.45,7.94,19.9l1.33-6.93a17.68,17.68,0,0,1-4.14,1.32c-4.74-.4,1.15-11.6,2.05-14.17l5.48-.11,1.92-5.93h-5.07l1.94-5.56-7.21-.15-1.93,5.65Z"/><polygon class="cls-1" points="415.59 189.52 423.09 189.66 436.67 149.14 429 149.12 415.59 189.52 415.59 189.52"/><polygon class="cls-1" points="386.37 189.54 393.39 189.67 406.89 149.12 399.74 149.12 386.37 189.54 386.37 189.54"/><path class="cls-1" d="M284.09,189.88h7.17l8.59-27.3h-7.17Zm15.7-38.4c2,0,3.14,1.87,2.62,4.17a5.19,5.19,0,0,1-4.45,4.17c-2,0-3.16-1.87-2.64-4.17a5.21,5.21,0,0,1,4.53-4.17Z"/><path class="cls-1" d="M323.55,189.88h7.17l8.59-27.3h-7.16Zm15.7-38.4c2,0,3.16,1.87,2.63,4.17a5.19,5.19,0,0,1-4.45,4.17c-2,0-3.16-1.87-2.64-4.17a5.22,5.22,0,0,1,4.45-4.17Z"/><path class="cls-1" d="M488.63,189.88h7.16l8.59-27.3h-7.16Zm15.69-38.4c2,0,3.15,1.87,2.63,4.17a5.2,5.2,0,0,1-4.53,4.17c-2,0-3.14-1.87-2.62-4.17A5.21,5.21,0,0,1,504.32,151.48Z"/><polygon class="cls-1" points="531.09 193.87 323.3 193.87 323.3 196.59 531.09 196.59 531.09 193.87 531.09 193.87"/><polygon class="cls-1" points="285.8 193.87 243.38 193.87 243.38 196.59 285.8 196.59 285.8 193.87 285.8 193.87"/></svg>